<mxfile host="65bd71144e" modified="2021-01-25T03:23:01.106Z" agent="5.0 (Macintosh; Intel Mac OS X 10_11_6) AppleWebKit/537.36 (KHTML, like Gecko) Code/1.50.1 Chrome/83.0.4103.122 Electron/9.2.1 Safari/537.36" etag="e29JxH7UHa5ddS9PDTr1" version="13.10.0" type="embed">
    <diagram id="ei5ZGNZvCjpj4wYwU9Eb" name="Page-1">
        <mxGraphModel dx="859" dy="372" grid="1" gridSize="10" guides="1" tooltips="1" connect="1" arrows="1" fold="1" page="1" pageScale="1" pageWidth="850" pageHeight="1100" math="0" shadow="0">
            <root>
                <mxCell id="0"/>
                <mxCell id="1" parent="0"/>
                <mxCell id="2" value="correlationId" style="rounded=0;whiteSpace=wrap;html=1;fontSize=14;fillColor=#fa6800;strokeColor=#C73500;fontColor=#ffffff;fontStyle=1" parent="1" vertex="1">
                    <mxGeometry x="580" y="450" width="160" height="60" as="geometry"/>
                </mxCell>
                <mxCell id="4" value="topicCount" style="rounded=0;whiteSpace=wrap;html=1;fontSize=14;fillColor=#008a00;strokeColor=#005700;fontColor=#ffffff;fontStyle=1" parent="1" vertex="1">
                    <mxGeometry x="740" y="450" width="160" height="60" as="geometry"/>
                </mxCell>
                <mxCell id="5" value="topic1" style="rounded=0;whiteSpace=wrap;html=1;fontSize=14;fillColor=#60a917;strokeColor=#2D7600;fontColor=#ffffff;fontStyle=1" parent="1" vertex="1">
                    <mxGeometry x="900" y="450" width="120" height="60" as="geometry"/>
                </mxCell>
                <mxCell id="6" value="......" style="rounded=0;whiteSpace=wrap;html=1;fontSize=14;fillColor=#60a917;strokeColor=#2D7600;fontColor=#ffffff;fontStyle=1" parent="1" vertex="1">
                    <mxGeometry x="1020" y="450" width="120" height="60" as="geometry"/>
                </mxCell>
                <mxCell id="7" value="topicN" style="rounded=0;whiteSpace=wrap;html=1;fontSize=14;fillColor=#60a917;strokeColor=#2D7600;fontColor=#ffffff;fontStyle=1" parent="1" vertex="1">
                    <mxGeometry x="1140" y="450" width="120" height="60" as="geometry"/>
                </mxCell>
                <mxCell id="8" value="int" style="text;html=1;strokeColor=none;fillColor=none;align=center;verticalAlign=middle;whiteSpace=wrap;rounded=0;fontSize=14;fontStyle=1;fontColor=#006666;" parent="1" vertex="1">
                    <mxGeometry x="640" y="428" width="40" height="20" as="geometry"/>
                </mxCell>
                <mxCell id="9" value="int" style="text;html=1;strokeColor=none;fillColor=none;align=center;verticalAlign=middle;whiteSpace=wrap;rounded=0;fontSize=14;fontStyle=1;fontColor=#006666;" parent="1" vertex="1">
                    <mxGeometry x="800" y="428" width="40" height="20" as="geometry"/>
                </mxCell>
                <mxCell id="19" value="topicName" style="rounded=0;whiteSpace=wrap;html=1;fillColor=#cce5ff;strokeColor=#36393d;fontStyle=1" parent="1" vertex="1">
                    <mxGeometry x="700" y="600" width="100" height="50" as="geometry"/>
                </mxCell>
                <mxCell id="20" value="numPartitions" style="rounded=0;whiteSpace=wrap;html=1;fillColor=#ffcc99;strokeColor=#36393d;fontStyle=1" parent="1" vertex="1">
                    <mxGeometry x="800" y="600" width="100" height="50" as="geometry"/>
                </mxCell>
                <mxCell id="21" value="partition1" style="rounded=0;whiteSpace=wrap;html=1;fillColor=#ffe6cc;strokeColor=#d79b00;fontStyle=1" parent="1" vertex="1">
                    <mxGeometry x="900" y="600" width="100" height="50" as="geometry"/>
                </mxCell>
                <mxCell id="22" value="......" style="rounded=0;whiteSpace=wrap;html=1;fillColor=#ffe6cc;strokeColor=#d79b00;fontStyle=1" parent="1" vertex="1">
                    <mxGeometry x="1000" y="600" width="100" height="50" as="geometry"/>
                </mxCell>
                <mxCell id="23" value="partitionN" style="rounded=0;whiteSpace=wrap;html=1;fillColor=#ffe6cc;strokeColor=#d79b00;fontStyle=1" parent="1" vertex="1">
                    <mxGeometry x="1100" y="600" width="100" height="50" as="geometry"/>
                </mxCell>
                <mxCell id="24" value="int" style="text;html=1;strokeColor=none;fillColor=none;align=center;verticalAlign=middle;whiteSpace=wrap;rounded=0;fontSize=14;fontStyle=1;fontColor=#006666;" parent="1" vertex="1">
                    <mxGeometry x="830" y="580" width="40" height="20" as="geometry"/>
                </mxCell>
                <mxCell id="26" value="string" style="text;html=1;strokeColor=none;fillColor=none;align=center;verticalAlign=middle;whiteSpace=wrap;rounded=0;fontSize=14;fontStyle=1;fontColor=#006666;" parent="1" vertex="1">
                    <mxGeometry x="730" y="580" width="40" height="20" as="geometry"/>
                </mxCell>
                <mxCell id="32" value="partitionData" style="rounded=0;whiteSpace=wrap;html=1;fontStyle=1;fillColor=#f8cecc;strokeColor=#b85450;" parent="1" vertex="1">
                    <mxGeometry x="940" y="700" width="100" height="50" as="geometry"/>
                </mxCell>
                <mxCell id="33" value="partitionId" style="rounded=0;whiteSpace=wrap;html=1;fontStyle=1;fillColor=#cce5ff;strokeColor=#36393d;" parent="1" vertex="1">
                    <mxGeometry x="840" y="700" width="100" height="50" as="geometry"/>
                </mxCell>
                <mxCell id="35" value="int" style="text;html=1;strokeColor=none;fillColor=none;align=center;verticalAlign=middle;whiteSpace=wrap;rounded=0;fontSize=14;fontStyle=1;fontColor=#006666;" parent="1" vertex="1">
                    <mxGeometry x="870" y="680" width="40" height="20" as="geometry"/>
                </mxCell>
                <mxCell id="54" value="" style="endArrow=none;dashed=1;html=1;fontSize=20;exitX=0;exitY=0;exitDx=0;exitDy=0;entryX=1;entryY=1;entryDx=0;entryDy=0;" parent="1" source="19" target="4" edge="1">
                    <mxGeometry width="50" height="50" relative="1" as="geometry">
                        <mxPoint x="1130" y="590" as="sourcePoint"/>
                        <mxPoint x="1180" y="540" as="targetPoint"/>
                    </mxGeometry>
                </mxCell>
                <mxCell id="55" value="" style="endArrow=none;dashed=1;html=1;fontSize=20;exitX=0;exitY=1;exitDx=0;exitDy=0;entryX=1;entryY=0;entryDx=0;entryDy=0;" parent="1" source="6" target="23" edge="1">
                    <mxGeometry width="50" height="50" relative="1" as="geometry">
                        <mxPoint x="1130" y="590" as="sourcePoint"/>
                        <mxPoint x="1180" y="540" as="targetPoint"/>
                    </mxGeometry>
                </mxCell>
                <mxCell id="56" value="" style="endArrow=none;dashed=1;html=1;fontSize=20;exitX=0;exitY=1;exitDx=0;exitDy=0;entryX=0;entryY=0;entryDx=0;entryDy=0;" parent="1" source="21" target="33" edge="1">
                    <mxGeometry width="50" height="50" relative="1" as="geometry">
                        <mxPoint x="1010" y="550" as="sourcePoint"/>
                        <mxPoint x="1060" y="500" as="targetPoint"/>
                    </mxGeometry>
                </mxCell>
                <mxCell id="57" value="" style="endArrow=none;dashed=1;html=1;fontSize=20;exitX=0;exitY=1;exitDx=0;exitDy=0;entryX=1;entryY=0;entryDx=0;entryDy=0;" parent="1" source="22" target="32" edge="1">
                    <mxGeometry width="50" height="50" relative="1" as="geometry">
                        <mxPoint x="1010" y="550" as="sourcePoint"/>
                        <mxPoint x="1110" y="730" as="targetPoint"/>
                    </mxGeometry>
                </mxCell>
                <mxCell id="60" value="FetchResponse" style="text;html=1;strokeColor=none;fillColor=none;align=center;verticalAlign=middle;whiteSpace=wrap;rounded=0;fontSize=20;fontStyle=1" parent="1" vertex="1">
                    <mxGeometry x="770" y="360" width="280" height="20" as="geometry"/>
                </mxCell>
                <mxCell id="61" value="errorCode" style="rounded=0;whiteSpace=wrap;html=1;fontStyle=1;fillColor=#f8cecc;strokeColor=#b85450;" vertex="1" parent="1">
                    <mxGeometry x="750" y="820" width="100" height="50" as="geometry"/>
                </mxCell>
                <mxCell id="62" value="highWatermark" style="rounded=0;whiteSpace=wrap;html=1;fontStyle=1;fillColor=#f8cecc;strokeColor=#b85450;" vertex="1" parent="1">
                    <mxGeometry x="850" y="820" width="100" height="50" as="geometry"/>
                </mxCell>
                <mxCell id="63" value="messageSetSize" style="rounded=0;whiteSpace=wrap;html=1;fontStyle=1;fillColor=#f8cecc;strokeColor=#b85450;" vertex="1" parent="1">
                    <mxGeometry x="950" y="820" width="120" height="50" as="geometry"/>
                </mxCell>
                <mxCell id="64" value="messageSetBody" style="rounded=0;whiteSpace=wrap;html=1;fontStyle=1;fillColor=#f8cecc;strokeColor=#b85450;" vertex="1" parent="1">
                    <mxGeometry x="1070" y="820" width="130" height="50" as="geometry"/>
                </mxCell>
                <mxCell id="65" value="" style="endArrow=none;dashed=1;html=1;fontSize=20;exitX=1;exitY=1;exitDx=0;exitDy=0;entryX=0;entryY=0;entryDx=0;entryDy=0;" edge="1" parent="1" source="33" target="61">
                    <mxGeometry width="50" height="50" relative="1" as="geometry">
                        <mxPoint x="910" y="660" as="sourcePoint"/>
                        <mxPoint x="850" y="710" as="targetPoint"/>
                    </mxGeometry>
                </mxCell>
                <mxCell id="66" value="" style="endArrow=none;dashed=1;html=1;fontSize=20;exitX=1;exitY=1;exitDx=0;exitDy=0;entryX=1;entryY=0;entryDx=0;entryDy=0;" edge="1" parent="1" source="32" target="64">
                    <mxGeometry width="50" height="50" relative="1" as="geometry">
                        <mxPoint x="950" y="760" as="sourcePoint"/>
                        <mxPoint x="840" y="830" as="targetPoint"/>
                    </mxGeometry>
                </mxCell>
            </root>
        </mxGraphModel>
    </diagram>
</mxfile>